<?xml version="1.0" standalone="no"?>
<!DOCTYPE svg PUBLIC "-//W3C//DTD SVG 20010904//EN"
 "http://www.w3.org/TR/2001/REC-SVG-20010904/DTD/svg10.dtd">
<svg version="1.0" xmlns="http://www.w3.org/2000/svg"
 width="300.000000pt" height="300.000000pt" viewBox="0 0 300.000000 300.000000"
 preserveAspectRatio="xMidYMid meet">
<metadata>
Created by potrace 1.10, written by Peter Selinger 2001-2011
</metadata>
<g transform="translate(0.000000,300.000000) scale(0.050000,-0.050000)"
fill="#ffffff" stroke="none">
<path d="M1052 3619 c-69 -61 -70 -61 -135 -27 -269 138 -757 -33 -757 -266 0
-156 142 -247 277 -178 83 43 145 172 83 172 -11 0 -20 -13 -20 -30 0 -87
-191 -151 -256 -86 -165 165 232 442 540 377 169 -35 173 -41 92 -164 -38 -59
-104 -170 -146 -247 -190 -350 -194 -354 -353 -280 -165 77 -297 47 -297 -67
0 -127 223 -183 373 -94 60 35 67 36 148 3 129 -52 374 -48 489 8 246 119 259
538 22 733 l-74 61 61 65 c97 104 64 118 -47 20z m100 -323 c181 -356 -86
-639 -503 -534 -97 25 -107 39 -56 81 38 31 218 299 336 502 l79 134 48 -44
c26 -25 70 -87 96 -139z m-772 -458 l90 -41 -50 -28 c-89 -49 -237 -38 -252
20 -25 101 57 120 212 49z"/>
<path d="M3572 3619 c-69 -61 -70 -61 -135 -27 -350 180 -922 -137 -716 -399
98 -124 339 -56 339 96 0 51 -28 35 -60 -34 -58 -126 -260 -97 -260 37 0 187
305 343 564 289 169 -35 173 -41 92 -164 -38 -59 -104 -170 -146 -247 -190
-350 -194 -354 -353 -280 -165 77 -297 47 -297 -67 0 -127 223 -183 373 -94
60 35 67 36 148 3 129 -52 374 -48 489 8 246 119 259 538 22 733 l-74 61 61
65 c97 104 64 118 -47 20z m100 -323 c181 -356 -86 -639 -503 -534 -97 25
-107 39 -56 81 38 31 218 299 336 502 l79 134 48 -44 c26 -25 70 -87 96 -139z
m-772 -458 l90 -41 -50 -28 c-89 -49 -237 -38 -252 20 -25 101 57 120 212 49z"/>
<path d="M2133 3257 c-38 -147 -106 -322 -150 -385 -103 -153 -142 -95 -53 80
88 173 8 156 -106 -22 -114 -179 -227 -211 -157 -45 65 157 248 295 279 210 5
-14 16 -18 24 -10 30 27 -35 75 -102 75 -85 0 -201 -98 -252 -215 -78 -176
-226 -246 -226 -107 0 59 9 71 60 88 154 49 229 216 103 230 -117 14 -281
-240 -234 -362 32 -84 141 -93 227 -18 32 29 38 28 66 -12 42 -60 62 -56 144
31 40 41 66 60 59 41 -8 -20 2 -53 22 -78 54 -66 126 -8 216 174 70 141 116
181 139 120 6 -15 -8 -65 -31 -109 -79 -156 -25 -269 87 -181 56 44 143 194
123 213 -6 7 -13 8 -16 3 -3 -4 -25 -44 -49 -88 -97 -178 -155 -144 -68 41 80
173 80 189 -10 189 -61 0 -69 5 -49 29 13 16 21 49 18 73 -8 51 -53 75 -64 35z
m-553 -174 c0 -40 -42 -83 -117 -122 -72 -37 -69 -16 9 76 77 90 108 103 108
46z"/>
<path d="M3947 3249 c-7 -18 -3 -41 9 -53 31 -31 84 -4 84 43 0 50 -75 57 -93
10z"/>
<path d="M4571 3255 c-90 -290 -180 -475 -231 -475 -36 0 -21 88 30 185 86
160 -6 132 -111 -34 -99 -156 -203 -209 -172 -87 37 149 201 305 273 260 23
-13 43 -16 50 -5 15 25 -54 61 -116 61 -79 0 -179 -83 -236 -196 -140 -282
-241 -269 -120 15 32 76 53 143 47 149 -28 28 -85 10 -85 -26 0 -21 -18 -82
-41 -134 -77 -180 27 -330 129 -185 18 25 32 36 32 23 0 -27 55 -86 80 -86 9
0 44 27 76 59 l60 60 12 -47 c31 -125 192 -12 263 186 25 70 48 102 72 102 59
0 60 -34 6 -142 -82 -162 -8 -278 101 -158 l36 40 28 -40 c46 -65 115 -50 196
45 l73 85 -35 -90 c-46 -120 -60 -135 -134 -150 -267 -53 -418 -183 -323 -279
88 -88 278 -5 392 171 39 59 96 117 139 139 80 41 187 154 208 219 25 78 -3
62 -65 -38 -49 -80 -185 -192 -185 -154 0 33 128 348 153 375 17 20 22 38 10
45 -39 25 -84 -15 -144 -127 -67 -125 -171 -261 -200 -261 -54 0 28 245 115
343 16 18 21 38 11 44 -42 26 -114 -48 -192 -197 -128 -241 -207 -235 -93 7
75 159 75 163 -10 163 -66 0 -68 2 -47 49 24 52 12 111 -23 111 -12 0 -25 -11
-29 -25z m290 -674 c-112 -157 -301 -241 -301 -134 0 63 51 105 182 152 153
54 168 52 119 -18z"/>
<path d="M5321 2791 c-14 -16 -19 -39 -12 -50 20 -32 85 -25 99 11 25 64 -41
94 -87 39z"/>
<path d="M5574 2807 c-34 -34 -14 -90 31 -83 29 4 45 20 45 46 0 39 -49 64
-76 37z"/>
<path d="M5813 2807 c-7 -8 -13 -31 -13 -52 0 -57 88 -39 96 20 7 44 -49 65
-83 32z"/>
</g>
</svg>
